<?xml version="1.0" encoding="UTF-8" standalone="no"?>
<!-- Generator: Adobe Illustrator 14.0.0, SVG Export Plug-In . SVG Version: 6.00 Build 43363)  -->

<svg
   xmlns:dc="http://purl.org/dc/elements/1.1/"
   xmlns:cc="http://creativecommons.org/ns#"
   xmlns:rdf="http://www.w3.org/1999/02/22-rdf-syntax-ns#"
   xmlns:svg="http://www.w3.org/2000/svg"
   xmlns="http://www.w3.org/2000/svg"
   xmlns:sodipodi="http://sodipodi.sourceforge.net/DTD/sodipodi-0.dtd"
   xmlns:inkscape="http://www.inkscape.org/namespaces/inkscape"
   version="1.0"
   id="Layer_1"
   x="0px"
   y="0px"
   width="790.2149"
   height="800"
   viewBox="0 0 790.2149 800"
   enable-background="new 0 0 800 800"
   xml:space="preserve"
   inkscape:version="0.47 r22583"
   sodipodi:docname="FC Barcelona Rugby.svg"
   inkscape:export-filename="C:\Users\Julien\Documents\Logos vectoriels\Travaux perso\Rugby\FC Barcelona Rugby.png"
   inkscape:export-xdpi="300"
   inkscape:export-ydpi="300"><metadata
   id="metadata77"><rdf:RDF><cc:Work
       rdf:about=""><dc:format>image/svg+xml</dc:format><dc:type
         rdf:resource="http://purl.org/dc/dcmitype/StillImage" /><dc:title></dc:title></cc:Work></rdf:RDF></metadata><defs
   id="defs75"><inkscape:perspective
     sodipodi:type="inkscape:persp3d"
     inkscape:vp_x="0 : 400 : 1"
     inkscape:vp_y="0 : 1000 : 0"
     inkscape:vp_z="800 : 400 : 1"
     inkscape:persp3d-origin="400 : 266.66667 : 1"
     id="perspective79" /></defs><sodipodi:namedview
   pagecolor="#ffffff"
   bordercolor="#666666"
   borderopacity="1"
   objecttolerance="10"
   gridtolerance="10"
   guidetolerance="10"
   inkscape:pageopacity="0"
   inkscape:pageshadow="2"
   inkscape:window-width="1600"
   inkscape:window-height="838"
   id="namedview73"
   showgrid="false"
   inkscape:zoom="0.69977474"
   inkscape:cx="356.83449"
   inkscape:cy="400.64874"
   inkscape:window-x="-8"
   inkscape:window-y="-8"
   inkscape:window-maximized="1"
   inkscape:current-layer="Layer_1" />
<path
   d="m 506.85899,6.66429 c -36.83238,25.570225 -72.34321,37.481137 -111.74661,37.481137 -39.40763,0 -74.91846,-11.910912 -111.75366,-37.481137 l -9.59573,-6.66146 -9.73848,6.44944 c -41.63236,27.567398 -75.45839,32.610489 -127.07234,32.610489 -17.79499,0 -36.9285,-3.358292 -55.32843,-9.713039 l -12.2572,-4.231788 -7.45722,10.606323 c -3.96606,5.64097 -6.91305,9.223996 -9.76109,12.688295 -3.51095,4.267123 -6.82542,8.299617 -10.7194,14.558252 l -6.23602,10.023993 7.09821,9.433182 c 31.54476,41.919283 43.44719,85.045633 43.44719,125.641963 0,75.70291 -41.39208,142.59879 -73.99126,176.42623 L 0,396.68552 11.98158,408.64308 c 6.42684,6.41411 17.87414,18.29251 27.34125,28.24301 -0.0283,0.38586 -0.38021,5.21694 -0.38021,5.21694 l -0.0834,0.94982 c -0.39152,7.35263 -0.58799,14.59359 -0.58799,21.72289 0,76.8803 22.72501,140.79951 67.69446,190.23679 52.06484,57.24078 133.47515,91.4131 229.69106,96.7304 23.8925,21.75964 48.17369,39.82035 49.25919,40.62741 L 395.20283,800 l 10.27135,-7.6551 c 1.07844,-0.80565 25.22818,-18.85505 49.09382,-40.60339 96.21308,-5.31729 177.62057,-39.48961 229.68682,-96.7304 44.96803,-49.43728 67.69304,-113.35649 67.69304,-190.23113 0,-7.13071 -0.19646,-14.37309 -0.58798,-21.72854 l -0.01,-0.17103 -0.0862,-0.94275 c 0,0 -0.33922,-4.66853 -0.36467,-5.05157 8.76322,-9.21269 20.58368,-21.49957 27.33842,-28.24584 L 790.21488,396.6827 778.47216,384.49475 C 745.8744,350.6659 704.48232,283.76437 704.48232,208.06004 c 0,-40.59349 11.90101,-83.71843 43.44154,-125.633476 l 7.09538,-9.428942 -6.22895,-10.02258 c -3.8954,-6.264288 -7.21128,-10.296783 -10.72081,-14.566732 -2.84664,-3.462886 -5.79362,-7.044499 -9.75545,-12.684055 l -7.45721,-10.610563 -12.2572,4.233201 c -18.40418,6.354748 -37.53485,9.71304 -55.32984,9.71304 -51.6182,0 -85.44564,-5.043092 -127.07517,-32.610483 L 516.45471,0 506.85899,6.66429 z"
   id="path3" />
<path
   d="m 395.17599,778.53435 c 0,0 -27.50238,-20.39993 -52.34893,-43.60833 -162.5436,-6.73919 -297.04489,-97.89223 -286.76789,-290.95727 0.60777,-5.09398 0.0933,-4.75193 0.97526,-13.44165 C 47.71432,420.66565 32.29247,404.57666 24.14832,396.44948 82.45201,335.94793 150.48569,197.55831 56.05351,72.069003 62.26268,62.086 66.75877,58.775764 75.99973,45.630934 c 18.87343,6.517292 39.86276,10.657206 60.95102,10.657206 54.15246,0 91.12618,-5.373832 136.58327,-35.475493 35.93626,24.946909 74.90998,40.556747 121.57836,40.556747 46.66698,0 85.63645,-15.609838 121.57131,-40.556747 45.45567,30.100247 82.42939,35.475493 136.58609,35.475493 21.08261,0 42.07476,-4.138501 60.95102,-10.657206 9.23954,13.143417 13.73422,16.455066 19.93915,26.438069 -94.42652,125.489307 -26.3886,263.878927 31.90801,324.380477 -8.14131,8.12718 -23.56599,24.21617 -32.88469,34.07762 0.87774,8.68972 0.36749,8.34767 0.97385,13.44165 10.277,193.06504 -124.22853,284.21666 -286.76365,290.95727 -24.84938,23.2084 -52.21748,43.60833 -52.21748,43.60833 l 0,0 z"
   id="path5"
   style="fill:#deb408" />
<path
   d="m 86.89298,432.45077 h -2.29399 l -0.9795,8.30668 -0.7053,5.34698 c -3.79221,74.37147 14.749066,134.45324 55.10228,178.71315 46.28394,50.76873 121.26883,79.69442 216.84871,83.65483 0.0933,0.003 1.60423,0.0113 1.60423,0.0113 28.67835,0.15547 55.76518,0.30247 78.8082,-0.008 95.65196,-3.96183 170.63686,-32.88893 216.91938,-83.65766 40.35321,-44.2585 58.89449,-104.33885 55.11217,-178.57605 -0.01,-0.13427 -0.71943,-5.50811 -0.71943,-5.50811 l -0.9682,-8.18513 -2.30387,-0.0975 H 86.89298 z"
   id="path7" />
<path
   d="m 89.18555,437.61259 c -0.21767,1.85017 -0.46502,3.94203 -0.46502,3.94203 0,0 -0.653,4.95405 -0.66006,4.95405 -0.31661,6.19786 -0.47491,12.29536 -0.47491,18.28969 0,64.41814 18.21195,117.01443 54.24715,156.54079 8.61199,9.44731 18.25577,18.11866 28.86351,25.99849 V 437.61259 c -48.65001,0 -80.4817,0 -81.51067,0 z"
   id="path9"
   style="fill:#00539f" />
<path
   d="m 702.16289,446.64012 -0.67138,-5.11094 c 0,0 -0.24452,-2.07632 -0.4636,-3.91659 -1.03038,0 -32.85925,0 -81.50925,0 v 209.72647 c 10.61056,-7.87984 20.25434,-16.55118 28.86491,-25.9985 36.04228,-39.53343 54.25282,-92.14243 54.25282,-156.47577 -10e-4,-5.97171 -0.15689,-12.04802 -0.4735,-18.22467 z"
   id="path11"
   style="fill:#00539f" />
<path
   d="m 260.46127,437.61259 c -33.27479,0 -63.89942,0 -89.76364,0 v 209.72647 c 24.83807,18.45929 55.00193,32.55818 89.76364,42.05356 V 437.61259 z"
   id="path13"
   style="fill:#a2224c" />
<path
   d="m 529.75502,437.61259 v 251.77579 c 34.77019,-9.49679 64.9298,-23.59568 89.76223,-42.04932 V 437.61259 c -25.86281,0 -56.48885,0 -89.76223,0 z"
   id="path15"
   style="fill:#a2224c" />
<path
   d="m 309.06463,566.79093 c 0,-31.07268 16.47486,-58.29237 41.16169,-73.41741 v -55.76093 c -30.98646,0 -61.34112,0 -89.76505,0 v 251.78003 c 27.21263,7.4346 57.24644,12.0367 89.76505,13.68334 v -62.86621 c -24.68825,-15.12362 -41.16169,-42.34614 -41.16169,-73.41882 z"
   id="path17"
   style="fill:#00539f" />
<path
   d="m 439.98996,437.61259 v 55.76093 c 24.68684,15.12504 41.1617,42.34473 41.1617,73.41741 0,31.07127 -16.47486,58.2952 -41.1617,73.41882 v 62.86338 c 32.52427,-1.65087 62.55667,-6.25439 89.76506,-13.68475 V 437.61259 c -28.42252,0 -58.77718,0 -89.76506,0 z"
   id="path19"
   style="fill:#00539f" />
<path
   d="m 439.98996,493.37352 v -55.76093 c -29.72993,0 -60.03371,0 -89.76364,0 v 55.76093 c 13.0671,-8.00704 28.43241,-12.6261 44.879,-12.6261 16.448,0 31.81614,4.62189 44.88464,12.6261 z"
   id="path21"
   style="fill:#a2224c" />
<path
   d="m 350.22632,640.21117 v 62.8662 c 1.58586,0.0806 3.16324,0.17103 4.76041,0.23605 l 1.51236,0.008 c 28.65291,0.15406 55.71571,0.30106 78.6386,-0.006 1.62684,-0.0678 3.23532,-0.15971 4.85227,-0.24169 v -62.86338 c -13.0685,8.00421 -28.43664,12.6261 -44.88464,12.6261 -16.44659,0 -31.8119,-4.62189 -44.879,-12.6261 z"
   id="path23"
   style="fill:#a2224c" />
<path
   d="m 351.19735,582.40501 c -15.56885,-14.17946 -15.61691,-42.99349 -11.43459,-62.13264 1.16183,-5.33002 2.62614,-10.54696 4.13426,-16.51019 -18.30382,14.88758 -29.99707,37.59421 -29.99707,63.02875 0,10.76745 2.09328,21.04162 5.89821,30.44654 1.38374,0.18091 2.7901,0.27844 4.21766,0.27844 12.0254,0.001 21.84586,-5.55616 27.18153,-15.1109 l 0,0 z"
   id="path25"
   style="fill:#deb408" />
<path
   d="m 434.79988,588.61983 c -2.66289,13.60984 -17.21832,23.80769 -30.93417,31.98716 -14.13281,8.43107 -36.92708,12.78724 -54.07896,13.58158 12.94412,8.71941 28.53841,13.81338 45.31857,13.81338 30.62745,0 57.29449,-16.95683 71.12201,-41.98713 -2.42261,-20.03527 -21.46848,-22.38861 -31.42745,-17.39499 l 0,0 z"
   id="path27"
   style="fill:#deb408" />
<path
   d="m 343.48854,629.4847 c 16.94128,0.13145 42.97794,-4.13002 57.90227,-13.02893 19.29039,-11.51091 34.27691,-23.79214 27.15609,-40.81823 -3.59858,-8.6035 -15.56179,-18.56106 -31.07269,-7.57877 -0.99081,12.71091 -16.6798,23.91935 -27.94477,22.47625 -5.7074,-0.73216 -10.49043,-2.53286 -14.47628,-5.14062 -6.33072,10.81692 -17.66495,16.95683 -31.03734,16.95683 -0.65725,0 -1.31449,-0.0184 -1.96325,-0.0551 5.12931,10.54272 12.4777,19.8063 21.43597,27.1886 l 0,0 z"
   id="path29"
   style="fill:#deb408" />
<path
   d="m 394.89754,516.18475 c 13.43176,-5.56889 32.04936,1.66925 46.23447,9.58866 13.39077,7.48266 27.37517,21.44586 35.03875,36.11012 -2.52438,-42.3419 -37.47973,-75.93472 -80.36438,-76.29797 -12.81268,8.41411 -11.06286,24.27836 -0.90884,30.59919 l 0,0 z"
   id="path31"
   style="fill:#deb408" />
<path
   d="m 392.62617,567.99799 c -16.6275,-12.12858 -15.60701,-31.21261 -8.45226,-42.54826 1.75547,-2.78161 3.79928,-4.96818 6.06923,-6.64167 -9.66781,-7.71729 -11.60278,-22.69109 -2.23744,-32.92144 -13.99571,1.21696 -26.97941,5.97454 -38.04227,13.39077 -3.54628,15.25083 -8.06075,29.17869 -7.8346,45.10797 0.30388,21.46847 9.19007,38.94261 28.01686,41.35674 8.78583,1.12508 21.46282,-8.22329 22.48048,-17.74411 l 0,0 z"
   id="path33"
   style="fill:#deb408" />
<path
   d="m 475.97712,574.25945 c -4.63462,-16.80135 -21.29321,-35.37514 -37.20411,-44.26274 -19.61689,-10.95967 -41.07689,-16.91866 -50.5129,-1.96324 -6.05793,9.59714 -6.89891,25.45009 6.83955,35.78221 18.67697,-12.8989 33.59564,-0.35477 37.90517,9.95897 1.38233,3.30317 2.08339,6.44521 2.20635,9.4346 11.02329,-3.87843 28.93983,-1.3795 34.45642,15.82468 3.33709,-7.71164 5.518,-16.04376 6.30952,-24.77448 l 0,0 z"
   id="path35"
   style="fill:#deb408" />
<path
   d="m 321.07872,338.82848 h -56.76587 v 79.81598 h 17.29746 c 0,0 0,-31.34972 0,-32.93134 1.55053,0 23.55328,0 23.55328,0 v -16.85223 c 0,0 -22.00134,0 -23.55328,0 0,-1.39364 0,-11.67629 0,-13.06992 1.59717,0 40.30092,0 40.30092,0 V 338.8299 h -0.83251 z"
   id="path37" />
<path
   d="m 354.09062,378.73506 c 0,24.99072 13.73564,41.13625 34.99352,41.13625 13.85719,0 23.8402,-6.09327 29.66491,-18.10736 l 0.33357,-0.68975 -14.54695,-8.62894 -0.42544,0.71236 c -4.14839,6.94697 -8.09891,9.5293 -14.57804,9.5293 -10.58512,0 -17.69887,-9.62541 -17.69887,-23.95186 0,-14.7731 6.73919,-23.95045 17.58863,-23.95045 6.30103,0 10.7307,2.62897 13.54624,8.03814 l 0.36749,0.70529 16.01125,-7.38796 -0.37032,-0.76324 c -5.62401,-11.62964 -15.76673,-17.77662 -29.33417,-17.77662 -20.9342,0 -35.55182,16.91584 -35.55182,41.13484 z"
   id="path39" />
<path
   d="m 515.55578,375.41634 c 4.8339,-3.42755 7.67064,-8.80703 7.67064,-15.10242 0,-13.45295 -9.57877,-21.48544 -25.6197,-21.48544 h -35.8345 -0.83392 v 79.81598 h 36.33203 c 17.92926,0 28.63029,-9.74414 28.63029,-26.06493 10e-4,-7.64237 -3.81625,-13.76391 -10.34484,-17.16319 z M 477.89937,354.8991 c 1.52932,0 19.0388,0 19.0388,0 7.76817,0 8.76322,3.55052 8.76322,6.6445 0,4.39857 -2.60917,6.53708 -7.98159,6.53708 0,0 -18.28687,0 -19.82043,0 0,-1.39646 0,-11.78371 0,-13.18158 z m 19.92926,47.23093 c 0,0 -18.39287,0 -19.92926,0 0,-1.46431 0,-17.07556 0,-18.53987 1.53639,0 19.92926,0 19.92926,0 7.05015,0 10.33353,2.92862 10.33353,9.21411 0,6.10033 -3.57313,9.32576 -10.33353,9.32576 z"
   id="path41" />
<path
   d="M 515.79182,53.489564 C 477.12199,76.881707 437.64368,88.268239 395.10249,88.299335 352.56695,88.269655 313.09147,76.881707 274.42165,53.489564 l -1.29187,-0.781623 -1.31307,0.74346 c -44.05214,24.894612 -82.81102,29.763853 -134.87302,29.763853 -12.51162,0 -25.419,-1.256533 -38.368774,-3.735676 l -5.581606,-1.068548 2.86784,4.90599 c 53.48532,91.53042 34.49881,180.02198 9.15191,238.14191 l -1.57597,3.61413 h 583.3407 l -1.5788,-3.61413 c -25.34408,-58.11993 -44.332,-146.61149 9.1505,-238.14191 l 2.86783,-4.90599 -5.57877,1.068548 c -12.94837,2.479143 -25.85716,3.735676 -38.36877,3.735676 -52.06201,0 -90.8223,-4.869241 -134.87303,-29.763853 l -1.31448,-0.74346 -1.29045,0.781623 z"
   id="path43" />
<path
   d="m 216.19146,81.013141 c -24.43242,5.796446 -49.74965,7.365345 -79.24777,7.365345 -11.15615,0 -22.6289,-1.154766 -34.14688,-3.078434 13.66638,24.436668 22.36176,48.617498 27.29319,72.054868 31.68187,0 84.7785,0 86.10146,0 0,-1.10954 0,-42.37865 0,-76.341779 z"
   id="path45"
   style="fill:#ffffff" />
<path
   d="M 392.52582,157.35492 V 93.417338 c -30.89035,-0.351942 -60.20473,-6.621885 -88.77424,-18.993573 0,34.955355 0,81.748125 0,82.931155 0.87773,0 43.30868,0 88.77424,0 z"
   id="path47"
   style="fill:#ffffff" />
<path
   d="m 132.53381,244.91645 c -4.06642,28.02676 -12.18088,53.43161 -21.29604,74.99196 2.0537,0 44.32069,0 104.95369,0 0,-32.09459 0,-73.83295 0,-74.99196 -1.29045,0 -51.7666,0 -83.65765,0 z"
   id="path49"
   style="fill:#ffffff" />
<path
   d="m 303.75158,319.90841 c 28.6529,0 58.69378,0 88.77424,0 v -74.99196 c -45.46556,0 -87.89651,0 -88.77424,0 0,1.15901 0,42.89737 0,74.99196 z"
   id="path51"
   style="fill:#ffffff" />
<path
   d="m 303.75158,157.35492 c 0,-1.18162 0,-47.9758 0,-82.931155 -10.32364,-4.469242 -20.55399,-9.714453 -30.72074,-15.794997 -19.44022,10.838124 -37.87266,17.884036 -56.83938,22.38296 0,33.963132 0,75.233652 0,76.341782 -1.32296,0 -54.41959,0 -86.10146,0 3.60423,17.1434 5.20563,33.89104 5.20563,50.03516 0,12.93423 -1.01201,25.46987 -2.76182,37.52637 31.89105,0 82.3672,0 83.65765,0 0,1.159 0,42.89737 0,74.99196 26.32076,0 56.1044,0 87.56153,0 0,-32.09459 0,-73.83296 0,-74.99196 0.87774,0 43.30868,0 88.77424,0 v -87.56153 c -45.46697,0.001 -87.89792,0.001 -88.77565,0.001 z"
   id="path53"
   style="fill:#e03a3e" />
<path
   d="m 517.1798,58.628768 c -0.041,0.02403 -0.0834,0.04806 -0.12438,0.07208 V 319.907 c 10.56533,0 20.84798,0 30.7801,0 V 72.953806 C 537.74934,69.131911 527.61086,64.443589 517.1798,58.628768 z"
   id="path55"
   style="fill:#ffdf1c" />
<path
   d="M 455.49238,85.345281 V 319.90841 c 10.3929,0 20.67131,0 30.78011,0 V 74.502917 c -10.15403,4.38585 -20.40134,7.992905 -30.78011,10.842364 z"
   id="path57"
   style="fill:#ffdf1c" />
<path
   d="M 397.68764,93.417338 V 319.90841 c 9.0247,0 18.04375,0 27.02464,0 V 91.517698 c -8.88619,1.142045 -17.88404,1.795046 -27.02464,1.89964 z"
   id="path59"
   style="fill:#ffdf1c" />
<path
   d="M 578.61845,82.013844 V 319.90841 c 10.94554,0 21.24374,0 30.7801,0 V 86.639977 c -10.58512,-0.982329 -20.77589,-2.476317 -30.7801,-4.626133 z"
   id="path61"
   style="fill:#ffdf1c" />
<path
   d="m 654.91641,207.39008 c 0,-38.21329 8.83531,-79.77922 32.50024,-122.090028 -11.51798,1.922255 -22.99214,3.078434 -34.14687,3.078434 -4.46642,0 -8.80421,-0.0523 -13.08971,-0.134275 V 319.90841 c 23.33278,0 37.62107,0 38.79421,0 -13.03458,-30.83805 -24.05787,-69.51778 -24.05787,-112.51833 z"
   id="path63"
   style="fill:#ffdf1c" />
<path
   d="M 609.39997,86.639977 V 319.90841 c 11.44448,0 21.78932,0 30.7801,0 V 88.244211 c -10.72505,-0.203533 -20.93279,-0.691163 -30.7801,-1.604234 z"
   id="path65"
   style="fill:#e03a3e" />
<path
   d="M 424.71228,91.517698 V 319.90841 c 10.33212,0 20.61053,0 30.7801,0 V 85.345281 c -10.12293,2.780203 -20.37307,4.833906 -30.7801,6.172417 z"
   id="path67"
   style="fill:#e03a3e" />
<path
   d="M 486.27249,74.502917 V 319.90841 c 10.46639,0 20.74904,0 30.78151,0 V 58.700853 c -10.18512,6.086197 -20.43809,11.334235 -30.78151,15.802064 z"
   id="path69"
   style="fill:#e03a3e" />
<path
   d="M 547.83552,72.955219 V 319.90841 c 10.70526,0 21.00063,0 30.78293,0 V 82.013844 c -10.36887,-2.228967 -20.5554,-5.180193 -30.78293,-9.058625 z"
   id="path71"
   style="fill:#e03a3e" />
</svg>